<svg width="83" height="83" viewBox="0 0 83 83" fill="none" xmlns="http://www.w3.org/2000/svg">
<path d="M41.8087 41.5276L12.8555 12.5744C20.8426 4.5873 30.4936 0.59375 41.8087 0.59375V41.5276Z" fill="#D7344E"/>
<path d="M41.809 41.5274H0.808594C0.808594 30.2124 4.80214 20.5613 12.7892 12.5742L41.809 41.5274Z" fill="#21BB6C"/>
<path d="M41.8088 41.5273L12.8556 70.4806C4.86855 62.4935 0.875 52.8424 0.875 41.5273H41.8088Z" fill="#922C9D"/>
<path d="M41.8087 41.5273V82.5277C30.4936 82.5277 20.8426 78.5342 12.8555 70.5471L41.8087 41.5273Z" fill="#2CB8C6"/>
<path d="M41.8086 41.5273L70.7618 70.4806C62.7747 78.4676 53.1236 82.4612 41.8086 82.4612V41.5273Z" fill="#266EDC"/>
<path d="M41.8086 41.5273H82.809C82.809 52.8424 78.8155 62.4935 70.8284 70.4806L41.8086 41.5273Z" fill="#FDB645"/>
<path d="M41.8086 41.5274L70.7618 12.5742C78.7489 20.5613 82.7424 30.2124 82.7424 41.5274H41.8086Z" fill="#FD915B"/>
<path d="M41.8086 41.5278V0.527344C53.1236 0.527344 62.7747 4.52089 70.7618 12.508L41.8086 41.5278Z" fill="#F17895"/>
<circle cx="41.8093" cy="41.528" r="25.071" fill="#24190D"/>
</svg>
